<svg id="visual" viewBox="0 0 960 540" width="960" height="540" xmlns="http://www.w3.org/2000/svg" xmlns:xlink="http://www.w3.org/1999/xlink" version="1.1"><rect x="0" y="0" width="960" height="540" fill="#1d232a"></rect><defs><linearGradient id="grad1_0" x1="43.8%" y1="0%" x2="100%" y2="100%"><stop offset="14.444444444444446%" stop-color="#0f141a" stop-opacity="1"></stop><stop offset="85.55555555555554%" stop-color="#0f141a" stop-opacity="1"></stop></linearGradient></defs><defs><linearGradient id="grad1_1" x1="43.8%" y1="0%" x2="100%" y2="100%"><stop offset="14.444444444444446%" stop-color="#0f141a" stop-opacity="1"></stop><stop offset="85.55555555555554%" stop-color="#161c22" stop-opacity="1"></stop></linearGradient></defs><defs><linearGradient id="grad1_2" x1="43.8%" y1="0%" x2="100%" y2="100%"><stop offset="14.444444444444446%" stop-color="#1d232a" stop-opacity="1"></stop><stop offset="85.55555555555554%" stop-color="#161c22" stop-opacity="1"></stop></linearGradient></defs><defs><linearGradient id="grad2_0" x1="0%" y1="0%" x2="56.3%" y2="100%"><stop offset="14.444444444444446%" stop-color="#0f141a" stop-opacity="1"></stop><stop offset="85.55555555555554%" stop-color="#0f141a" stop-opacity="1"></stop></linearGradient></defs><defs><linearGradient id="grad2_1" x1="0%" y1="0%" x2="56.3%" y2="100%"><stop offset="14.444444444444446%" stop-color="#161c22" stop-opacity="1"></stop><stop offset="85.55555555555554%" stop-color="#0f141a" stop-opacity="1"></stop></linearGradient></defs><defs><linearGradient id="grad2_2" x1="0%" y1="0%" x2="56.3%" y2="100%"><stop offset="14.444444444444446%" stop-color="#161c22" stop-opacity="1"></stop><stop offset="85.55555555555554%" stop-color="#1d232a" stop-opacity="1"></stop></linearGradient></defs><g transform="translate(960, 0)"><path d="M0 486C-54.9 453.4 -109.9 420.8 -164.2 396.3C-218.5 371.9 -272.2 355.5 -323.1 323.1C-374.1 290.8 -422.3 242.5 -449 186C-475.7 129.5 -480.8 64.7 -486 0L0 0Z" fill="#1a1f26"></path><path d="M0 324C-36.6 302.3 -73.2 280.6 -109.4 264.2C-145.7 247.9 -181.5 237 -215.4 215.4C-249.4 193.9 -281.5 161.7 -299.3 124C-317.1 86.3 -320.6 43.2 -324 0L0 0Z" fill="#13181e"></path><path d="M0 162C-18.3 151.1 -36.6 140.3 -54.7 132.1C-72.8 124 -90.7 118.5 -107.7 107.7C-124.7 96.9 -140.8 80.8 -149.7 62C-158.6 43.2 -160.3 21.6 -162 0L0 0Z" fill="#0f141a"></path></g><g transform="translate(0, 540)"><path d="M0 -486C53.9 -450.6 107.8 -415.3 161.9 -390.8C216 -366.3 270.2 -352.7 321.7 -321.7C373.3 -290.8 422.1 -242.5 449 -186C475.9 -129.5 481 -64.7 486 0L0 0Z" fill="#1a1f26"></path><path d="M0 -324C35.9 -300.4 71.9 -276.9 107.9 -260.5C144 -244.2 180.1 -235.1 214.5 -214.5C248.8 -193.9 281.4 -161.7 299.3 -124C317.3 -86.3 320.6 -43.2 324 0L0 0Z" fill="#13181e"></path><path d="M0 -162C18 -150.2 35.9 -138.4 54 -130.3C72 -122.1 90.1 -117.6 107.2 -107.2C124.4 -96.9 140.7 -80.8 149.7 -62C158.6 -43.2 160.3 -21.6 162 0L0 0Z" fill="#0f141a"></path></g></svg>