<svg width="194" height="23" viewBox="0 0 194 23" fill="none" xmlns="http://www.w3.org/2000/svg">
<line x1="1" y1="-1" x2="26.2029" y2="-1" transform="matrix(0.588172 0.808736 -0.909065 0.416655 0.000244141 1)" stroke="#3E4047" stroke-width="2" stroke-linecap="round"/>
<line x1="1" y1="-1" x2="26.2029" y2="-1" transform="matrix(0.588172 0.808736 -0.909065 0.416655 16.0002 1)" stroke="#3E4047" stroke-width="2" stroke-linecap="round"/>
<line x1="1" y1="-1" x2="26.2029" y2="-1" transform="matrix(0.588172 0.808736 -0.909065 0.416655 32.0002 1)" stroke="#3E4047" stroke-width="2" stroke-linecap="round"/>
<line x1="1" y1="-1" x2="26.2029" y2="-1" transform="matrix(0.588172 0.808736 -0.909065 0.416655 48.0002 1)" stroke="#3E4047" stroke-width="2" stroke-linecap="round"/>
<line x1="1" y1="-1" x2="26.2029" y2="-1" transform="matrix(0.588172 0.808736 -0.909065 0.416655 64.0002 1)" stroke="#3E4047" stroke-width="2" stroke-linecap="round"/>
<line x1="1" y1="-1" x2="26.2029" y2="-1" transform="matrix(0.588172 0.808736 -0.909065 0.416655 80.0002 1)" stroke="#3E4047" stroke-width="2" stroke-linecap="round"/>
<line x1="1" y1="-1" x2="26.2029" y2="-1" transform="matrix(0.588172 0.808736 -0.909065 0.416655 96.0002 1)" stroke="#3E4047" stroke-width="2" stroke-linecap="round"/>
<line x1="1" y1="-1" x2="26.2029" y2="-1" transform="matrix(0.588172 0.808736 -0.909065 0.416655 112 1)" stroke="#3E4047" stroke-width="2" stroke-linecap="round"/>
<line x1="1" y1="-1" x2="26.2029" y2="-1" transform="matrix(0.588172 0.808736 -0.909065 0.416655 128 1)" stroke="#3E4047" stroke-width="2" stroke-linecap="round"/>
<line x1="1" y1="-1" x2="26.2029" y2="-1" transform="matrix(0.588172 0.808736 -0.909065 0.416655 144 1)" stroke="#3E4047" stroke-width="2" stroke-linecap="round"/>
<line x1="1" y1="-1" x2="26.2029" y2="-1" transform="matrix(0.588172 0.808736 -0.909065 0.416655 160 1)" stroke="#3E4047" stroke-width="2" stroke-linecap="round"/>
<line x1="1" y1="-1" x2="26.2029" y2="-1" transform="matrix(0.588172 0.808736 -0.909065 0.416655 176 1)" stroke="#3E4047" stroke-width="2" stroke-linecap="round"/>
</svg>
